<?xml version="1.0" encoding="utf-8"?>
<!-- Generator: Adobe Illustrator 26.5.0, SVG Export Plug-In . SVG Version: 6.00 Build 0)  -->
<svg version="1.1" id="Layer_1"
	xmlns="http://www.w3.org/2000/svg"
	xmlns:xlink="http://www.w3.org/1999/xlink" x="0px" y="0px" viewBox="0 0 1000 1000" style="enable-background:new 0 0 1000 1000;" xml:space="preserve">
	<g>
		<path d="M652.2,500.77c-101.76,48.01-203.58,49.62-305.07-0.9c-6.92-3.45-10.78-2.92-13.63,4.44c-2.29,5.91-5.15,11.61-7.87,17.35
		c-1.55,3.27-2.63,6.88,0.19,9.51c13.47,12.57,24.72,28.92,44.97,31.16c21.51,2.38,43.18,3.32,64.73,5.36
		c7.47,0.71,12.26-1.18,14.09-8.81c1.78-7.41,5.87-10.02,13.85-8.3c24.77,5.36,49.72,5.43,74.53,0.19
		c6.67-1.41,10.86,0.13,12.59,6.68c1.69,6.38,5.84,8.63,12.08,8.92c7.62,0.35,15.22,1.31,22.82,2c0.01-0.25,0.03-0.49,0.04-0.74
		c4.25,0,8.56,0.46,12.73-0.08c22.84-2.96,46.48-1.94,64.62-21.27c17.36-18.49,18.38-19.09,5.87-40.59
		C664.57,498.5,660.26,496.96,652.2,500.77z"/>
		<path d="M728.45,410.21L728.45,410.21c-0.83,0-1.64,0.1-2.42,0.27c-11.71-27.76-8.67-58.23-13.1-87.3
		c-4.46-29.29-4.49-59.22-15.32-87.51c-5.81-15.18-14.2-27.42-27.47-37.18c-106.4-78.23-250.89-73.56-351.58,11.68
		c-9.13,7.73-14.09,17.65-17.35,28.95c-12.8,44.38-18.25,89.88-20.07,135.81c-0.5,12.63-2.16,24.48-7.89,35.44
		c-0.56-0.08-1.11-0.17-1.69-0.17c-6.27,0-11.36,5.08-11.36,11.36v132.93c0,6.27,5.08,11.36,11.36,11.36c3.06,0,5.82-1.22,7.86-3.19
		c14.78,30.03,13.11,64.43,21.56,96.14c21.37,80.24,66.68,143.05,134.05,190.63c6.75,4.77,14.14,7.48,22.57,7.47
		c28.93-0.04,57.85,0.03,86.78,0.22c7.17,0.05,13.11-2.8,18.89-6.52c79-50.85,125.6-123.49,144.39-214.79
		c2.91-14.14,5.22-28.38,5.72-42.86c0.33-9.47,2.11-18.52,8.37-26.15c0.58-0.71,1.11-1.45,1.6-2.21c1.54,0.78,3.26,1.27,5.11,1.27h0
		c6.27,0,11.36-5.08,11.36-11.36V421.57C739.81,415.29,734.72,410.21,728.45,410.21z M616.85,795.15
		c-9.82,8.78-19.73,17.48-29.17,26.66c-4.19,4.08-7.63,4.53-12.02,0.91c-12.58-10.37-27.12-12.11-43.01-11.45
		c-24.19,1-48.46,0.6-72.68,0.12c-12.35-0.25-23.89,1.71-33.6,9.34c-7.94,6.24-12.98,3.96-18.81-2.94
		c-7.94-9.41-16.01-18.98-25.43-26.79c-11.8-9.78-11.05-19.37-2.43-31.37c6.86,7.15,13.86,13.9,20.19,21.22
		c4.5,5.2,8.6,6.64,13.23,0.84c12.43-15.57,28.84-18.17,47.74-17.37c28.86,1.22,57.84,1.15,86.7-0.02
		c15.15-0.62,27.88,2.61,37.91,13.6c8.41,9.23,14.16,6.73,20.53-2.05c4.71-6.49,10.42-12.25,15.92-18.62
		c1.65,1.27,2.13,1.45,2.28,1.79C633.92,779.94,633.88,779.91,616.85,795.15z M688.19,594.1c-6.01,10.73-11.67,21.67-17.81,32.33
		c-18.84,32.75-39.59,64.92-45.79,102.91c-2.43,14.89-8.17,26.02-18.24,36.34c-4.43,4.54-7.39,5.03-11,0.16
		c-8.89-12.02-21.21-13.11-35.01-12.9c-40.84,0.61-81.7,0.55-122.54,0.01c-11.76-0.16-21.78,1.27-28.85,11.71
		c-3.62,5.35-7.01,5.23-12.09,0.5c-10.21-9.5-16.84-19.53-19.1-34.26c-5.71-37.21-25.73-68.79-43.96-100.88
		c-11.1-19.53-22.53-38.78-30.14-60.2c-7.32-20.59-8.88-41.57-1.08-61.11c15.24-38.17,12.64-77.31,10.98-116.67
		c-1.36-32.3-1.71-64.69-4.56-96.86c-1.82-20.52,6.03-35.31,19.94-48.44c25.43-24,57.15-34.12,90.37-40.97
		c6.38-1.32,6.66,2.69,7.26,7.32c5.83,45.49,12.16,90.92,17.63,136.45c3.62,30.11,13.85,39.91,44.28,39.92
		c11.06,0,22.13,0.05,33.19-0.01c19.01-0.1,27.85-6.82,32.69-25.42c5.79-22.27,6.8-45.29,10.19-67.95
		c4.02-26.88,7.49-53.84,10.97-80.79c1.04-8.06,3.89-9.6,12.42-8.01c32.03,5.97,61,17.52,85.11,40.13
		c12.47,11.7,19.33,25.25,19.03,42.72c-0.48,27.2-0.13,54.42-0.13,81.63c-5.91,27.95-4.32,56.11-6.41,84.13
		c-1.1,14.8,5.21,28.45,10.41,41.61C709.35,531.36,705.56,563.08,688.19,594.1z"/>
	</g>
</svg>
